<svg version="1.1" id="Layer_1" xmlns="http://www.w3.org/2000/svg" xmlns:xlink="http://www.w3.org/1999/xlink" x="0px" y="0px"
	 width="60" height="40" viewBox="0 0 496 496" enable-background="new 0 0 496 496" xml:space="preserve">
<path fill="#000000" opacity="1.000000" stroke="none" 
	d="
M286.751709,172.759796 
	C293.433136,168.542297 299.211060,163.792694 304.327942,158.252716 
	C314.293304,147.463379 319.360229,134.983749 318.312866,120.046371 
	C317.874023,113.787773 317.708557,107.022339 324.517151,103.307823 
	C331.456573,99.521942 338.193176,100.662323 344.158539,105.366325 
	C364.200043,121.170097 383.514191,137.792847 399.949066,157.454712 
	C406.930450,165.806870 411.608032,175.273483 412.336365,186.353592 
	C412.433014,187.823349 413.251221,188.741241 414.085114,189.803482 
	C415.208069,191.233871 416.556854,192.736526 416.987701,194.418488 
	C419.105316,202.685638 423.404572,209.209854 430.608917,214.005859 
	C433.803589,216.132568 433.923004,219.505692 431.946747,222.897903 
	C429.948242,226.328308 426.862762,228.583694 423.778259,230.858017 
	C397.613770,250.150284 370.085785,267.397430 342.759155,284.952087 
	C319.078247,300.164703 295.698364,315.852570 271.860168,330.812073 
	C236.569595,352.958374 200.453461,373.620880 161.175323,388.087433 
	C139.461227,396.084991 117.373474,402.792908 94.371040,405.984772 
	C91.097130,406.439056 87.719765,406.281158 84.394913,406.204895 
	C78.951546,406.079987 77.144798,402.073242 74.578224,396.692871 
	C81.620972,397.817596 87.498238,397.950775 93.406616,397.161224 
	C112.329651,394.632507 130.476257,389.444977 148.391846,382.882599 
	C196.267487,365.345947 240.192200,340.322632 282.810242,312.800018 
	C323.814514,286.319519 364.662140,259.595856 405.498627,232.856857 
	C411.620392,228.848434 417.264130,224.115646 423.211884,219.833038 
	C425.653442,218.075012 426.226715,216.453308 423.742065,214.314941 
	C418.779114,210.043610 415.680481,204.755905 414.317047,198.263382 
	C413.442566,194.099350 411.482117,193.684662 407.356506,196.587036 
	C394.965271,205.304321 382.619171,214.086960 370.321472,222.935822 
	C352.076904,236.063797 333.617035,248.913773 315.746399,262.534912 
	C293.898773,279.187317 272.753235,296.758850 250.968933,313.496704 
	C211.224747,344.033966 167.898819,368.295837 120.864777,385.689606 
	C108.997307,390.078339 96.351761,391.871857 83.769371,393.032013 
	C71.526367,394.160858 63.688938,383.880707 66.067253,370.545776 
	C67.789383,360.890076 73.084686,353.446777 80.480072,347.261871 
	C92.491798,337.216217 105.461258,328.368744 117.082657,317.833252 
	C135.974472,300.706757 152.498688,281.593475 165.030029,259.328857 
	C168.540787,253.091263 171.699585,246.765137 176.569641,241.434860 
	C178.591263,239.222183 179.587173,236.761322 177.581207,233.765778 
	C175.984360,231.381165 177.425262,229.475891 179.570663,228.513489 
	C184.047913,226.505035 187.364685,224.030121 185.820602,218.363144 
	C185.553436,217.382599 185.944321,216.113373 186.867462,215.728745 
	C190.665619,214.146317 191.493851,210.241043 193.666016,207.399506 
	C195.369980,205.170456 196.208511,202.870819 194.998322,199.988480 
	C193.796478,197.126038 195.308762,195.390961 198.142639,195.165070 
	C201.432114,194.902893 203.055161,192.895554 204.550552,190.335129 
	C210.514603,180.123535 216.413147,169.867981 222.647522,159.822037 
	C226.573837,153.495285 228.749817,153.038742 235.513535,155.926697 
	C238.268768,157.103088 240.903885,158.559769 243.653809,159.749878 
	C252.040451,163.379486 257.487732,169.486374 259.293945,178.512527 
	C260.127136,182.676147 262.323578,183.565781 266.121338,182.408417 
	C273.349976,180.205505 280.077057,176.977341 286.751709,172.759796 
z"/>
</svg>